<?xml version="1.0" encoding="UTF-8" standalone="no"?>
<!-- This is a Stata 17.0 generated SVG file (http://www.stata.com) -->

<svg version="1.1" width="5.500in" height="4.000in" viewBox="0 0 3960 2880" xmlns="http://www.w3.org/2000/svg" xmlns:xlink="http://www.w3.org/1999/xlink">
	<desc>Stata Graph - Graph</desc>
	<rect x="0" y="0" width="3960" height="2880" style="fill:#EAF2F3;stroke:none"/>
	<rect x="0.00" y="0.00" width="3959.88" height="2880.00" style="fill:#EAF2F3"/>
	<rect x="2.88" y="2.88" width="3954.12" height="2874.24" style="fill:none;stroke:#EAF2F3;stroke-width:5.76"/>
	<rect x="390.80" y="100.86" width="3468.22" height="2388.33" style="fill:#FFFFFF"/>
	<rect x="393.68" y="103.74" width="3462.46" height="2382.57" style="fill:none;stroke:#FFFFFF;stroke-width:5.76"/>
	<line x1="390.80" y1="2425.82" x2="3859.02" y2="2425.82" style="stroke:#EAF2F3;stroke-width:8.64"/>
	<line x1="390.80" y1="1973.50" x2="3859.02" y2="1973.50" style="stroke:#EAF2F3;stroke-width:8.64"/>
	<line x1="390.80" y1="1521.18" x2="3859.02" y2="1521.18" style="stroke:#EAF2F3;stroke-width:8.64"/>
	<line x1="390.80" y1="1068.86" x2="3859.02" y2="1068.86" style="stroke:#EAF2F3;stroke-width:8.64"/>
	<line x1="390.80" y1="616.54" x2="3859.02" y2="616.54" style="stroke:#EAF2F3;stroke-width:8.64"/>
	<line x1="390.80" y1="164.22" x2="3859.02" y2="164.22" style="stroke:#EAF2F3;stroke-width:8.64"/>
	<circle cx="2085.56" cy="2199.72" r="26.35" style="fill:#1A476F"/>
	<circle cx="2085.56" cy="2199.72" r="22.03" style="fill:none;stroke:#1A476F;stroke-width:8.64"/>
	<circle cx="2077.76" cy="2177.08" r="26.35" style="fill:#1A476F"/>
	<circle cx="2077.76" cy="2177.08" r="22.03" style="fill:none;stroke:#1A476F;stroke-width:8.64"/>
	<circle cx="2069.84" cy="2154.55" r="26.35" style="fill:#1A476F"/>
	<circle cx="2069.84" cy="2154.55" r="22.03" style="fill:none;stroke:#1A476F;stroke-width:8.64"/>
	<circle cx="2062.05" cy="2131.91" r="26.35" style="fill:#1A476F"/>
	<circle cx="2062.05" cy="2131.91" r="22.03" style="fill:none;stroke:#1A476F;stroke-width:8.64"/>
	<circle cx="2054.13" cy="2109.26" r="26.35" style="fill:#1A476F"/>
	<circle cx="2054.13" cy="2109.26" r="22.03" style="fill:none;stroke:#1A476F;stroke-width:8.64"/>
	<circle cx="2046.21" cy="2086.61" r="26.35" style="fill:#1A476F"/>
	<circle cx="2046.21" cy="2086.61" r="22.03" style="fill:none;stroke:#1A476F;stroke-width:8.64"/>
	<circle cx="2038.41" cy="2064.09" r="26.35" style="fill:#1A476F"/>
	<circle cx="2038.41" cy="2064.09" r="22.03" style="fill:none;stroke:#1A476F;stroke-width:8.64"/>
	<circle cx="2030.37" cy="2041.44" r="26.35" style="fill:#1A476F"/>
	<circle cx="2030.37" cy="2041.44" r="22.03" style="fill:none;stroke:#1A476F;stroke-width:8.64"/>
	<circle cx="2022.45" cy="2018.80" r="26.35" style="fill:#1A476F"/>
	<circle cx="2022.45" cy="2018.80" r="22.03" style="fill:none;stroke:#1A476F;stroke-width:8.64"/>
	<circle cx="2014.53" cy="1996.15" r="26.35" style="fill:#1A476F"/>
	<circle cx="2014.53" cy="1996.15" r="22.03" style="fill:none;stroke:#1A476F;stroke-width:8.64"/>
	<circle cx="2006.48" cy="1973.63" r="26.35" style="fill:#1A476F"/>
	<circle cx="2006.48" cy="1973.63" r="22.03" style="fill:none;stroke:#1A476F;stroke-width:8.64"/>
	<circle cx="1998.44" cy="1950.98" r="26.35" style="fill:#1A476F"/>
	<circle cx="1998.44" cy="1950.98" r="22.03" style="fill:none;stroke:#1A476F;stroke-width:8.64"/>
	<circle cx="1990.40" cy="1928.33" r="26.35" style="fill:#1A476F"/>
	<circle cx="1990.40" cy="1928.33" r="22.03" style="fill:none;stroke:#1A476F;stroke-width:8.64"/>
	<circle cx="1982.35" cy="1905.69" r="26.35" style="fill:#1A476F"/>
	<circle cx="1982.35" cy="1905.69" r="22.03" style="fill:none;stroke:#1A476F;stroke-width:8.64"/>
	<circle cx="1974.18" cy="1883.16" r="26.35" style="fill:#1A476F"/>
	<circle cx="1974.18" cy="1883.16" r="22.03" style="fill:none;stroke:#1A476F;stroke-width:8.64"/>
	<circle cx="1966.02" cy="1860.52" r="26.35" style="fill:#1A476F"/>
	<circle cx="1966.02" cy="1860.52" r="22.03" style="fill:none;stroke:#1A476F;stroke-width:8.64"/>
	<circle cx="1957.85" cy="1837.87" r="26.35" style="fill:#1A476F"/>
	<circle cx="1957.85" cy="1837.87" r="22.03" style="fill:none;stroke:#1A476F;stroke-width:8.64"/>
	<circle cx="1949.56" cy="1815.22" r="26.35" style="fill:#1A476F"/>
	<circle cx="1949.56" cy="1815.22" r="22.03" style="fill:none;stroke:#1A476F;stroke-width:8.64"/>
	<circle cx="1941.39" cy="1792.57" r="26.35" style="fill:#1A476F"/>
	<circle cx="1941.39" cy="1792.57" r="22.03" style="fill:none;stroke:#1A476F;stroke-width:8.64"/>
	<circle cx="1932.98" cy="1770.05" r="26.35" style="fill:#1A476F"/>
	<circle cx="1932.98" cy="1770.05" r="22.03" style="fill:none;stroke:#1A476F;stroke-width:8.64"/>
	<circle cx="1924.68" cy="1747.40" r="26.35" style="fill:#1A476F"/>
	<circle cx="1924.68" cy="1747.40" r="22.03" style="fill:none;stroke:#1A476F;stroke-width:8.64"/>
	<circle cx="1916.27" cy="1724.76" r="26.35" style="fill:#1A476F"/>
	<circle cx="1916.27" cy="1724.76" r="22.03" style="fill:none;stroke:#1A476F;stroke-width:8.64"/>
	<circle cx="1907.85" cy="1702.11" r="26.35" style="fill:#1A476F"/>
	<circle cx="1907.85" cy="1702.11" r="22.03" style="fill:none;stroke:#1A476F;stroke-width:8.64"/>
	<circle cx="1899.32" cy="1679.59" r="26.35" style="fill:#1A476F"/>
	<circle cx="1899.32" cy="1679.59" r="22.03" style="fill:none;stroke:#1A476F;stroke-width:8.64"/>
	<circle cx="1890.78" cy="1656.94" r="26.35" style="fill:#1A476F"/>
	<circle cx="1890.78" cy="1656.94" r="22.03" style="fill:none;stroke:#1A476F;stroke-width:8.64"/>
	<circle cx="1882.24" cy="1634.29" r="26.35" style="fill:#1A476F"/>
	<circle cx="1882.24" cy="1634.29" r="22.03" style="fill:none;stroke:#1A476F;stroke-width:8.64"/>
	<circle cx="1873.58" cy="1611.65" r="26.35" style="fill:#1A476F"/>
	<circle cx="1873.58" cy="1611.65" r="22.03" style="fill:none;stroke:#1A476F;stroke-width:8.64"/>
	<circle cx="1864.91" cy="1589.12" r="26.35" style="fill:#1A476F"/>
	<circle cx="1864.91" cy="1589.12" r="22.03" style="fill:none;stroke:#1A476F;stroke-width:8.64"/>
	<circle cx="1856.13" cy="1566.48" r="26.35" style="fill:#1A476F"/>
	<circle cx="1856.13" cy="1566.48" r="22.03" style="fill:none;stroke:#1A476F;stroke-width:8.64"/>
	<circle cx="1847.34" cy="1543.83" r="26.35" style="fill:#1A476F"/>
	<circle cx="1847.34" cy="1543.83" r="22.03" style="fill:none;stroke:#1A476F;stroke-width:8.64"/>
	<circle cx="1838.43" cy="1521.18" r="26.35" style="fill:#1A476F"/>
	<circle cx="1838.43" cy="1521.18" r="22.03" style="fill:none;stroke:#1A476F;stroke-width:8.64"/>
	<circle cx="1829.40" cy="1498.66" r="26.35" style="fill:#1A476F"/>
	<circle cx="1829.40" cy="1498.66" r="22.03" style="fill:none;stroke:#1A476F;stroke-width:8.64"/>
	<circle cx="1820.36" cy="1476.01" r="26.35" style="fill:#1A476F"/>
	<circle cx="1820.36" cy="1476.01" r="22.03" style="fill:none;stroke:#1A476F;stroke-width:8.64"/>
	<circle cx="1811.33" cy="1453.37" r="26.35" style="fill:#1A476F"/>
	<circle cx="1811.33" cy="1453.37" r="22.03" style="fill:none;stroke:#1A476F;stroke-width:8.64"/>
	<circle cx="1802.05" cy="1430.72" r="26.35" style="fill:#1A476F"/>
	<circle cx="1802.05" cy="1430.72" r="22.03" style="fill:none;stroke:#1A476F;stroke-width:8.64"/>
	<circle cx="1792.89" cy="1408.20" r="26.35" style="fill:#1A476F"/>
	<circle cx="1792.89" cy="1408.20" r="22.03" style="fill:none;stroke:#1A476F;stroke-width:8.64"/>
	<circle cx="1783.49" cy="1385.55" r="26.35" style="fill:#1A476F"/>
	<circle cx="1783.49" cy="1385.55" r="22.03" style="fill:none;stroke:#1A476F;stroke-width:8.64"/>
	<circle cx="1774.08" cy="1362.90" r="26.35" style="fill:#1A476F"/>
	<circle cx="1774.08" cy="1362.90" r="22.03" style="fill:none;stroke:#1A476F;stroke-width:8.64"/>
	<circle cx="1764.55" cy="1340.25" r="26.35" style="fill:#1A476F"/>
	<circle cx="1764.55" cy="1340.25" r="22.03" style="fill:none;stroke:#1A476F;stroke-width:8.64"/>
	<circle cx="1754.90" cy="1317.73" r="26.35" style="fill:#1A476F"/>
	<circle cx="1754.90" cy="1317.73" r="22.03" style="fill:none;stroke:#1A476F;stroke-width:8.64"/>
	<circle cx="1745.12" cy="1295.08" r="26.35" style="fill:#1A476F"/>
	<circle cx="1745.12" cy="1295.08" r="22.03" style="fill:none;stroke:#1A476F;stroke-width:8.64"/>
	<circle cx="1735.35" cy="1272.44" r="26.35" style="fill:#1A476F"/>
	<circle cx="1735.35" cy="1272.44" r="22.03" style="fill:none;stroke:#1A476F;stroke-width:8.64"/>
	<circle cx="1725.32" cy="1249.79" r="26.35" style="fill:#1A476F"/>
	<circle cx="1725.32" cy="1249.79" r="22.03" style="fill:none;stroke:#1A476F;stroke-width:8.64"/>
	<circle cx="1715.30" cy="1227.27" r="26.35" style="fill:#1A476F"/>
	<circle cx="1715.30" cy="1227.27" r="22.03" style="fill:none;stroke:#1A476F;stroke-width:8.64"/>
	<circle cx="1705.03" cy="1204.62" r="26.35" style="fill:#1A476F"/>
	<circle cx="1705.03" cy="1204.62" r="22.03" style="fill:none;stroke:#1A476F;stroke-width:8.64"/>
	<circle cx="1694.76" cy="1181.97" r="26.35" style="fill:#1A476F"/>
	<circle cx="1694.76" cy="1181.97" r="22.03" style="fill:none;stroke:#1A476F;stroke-width:8.64"/>
	<circle cx="1684.36" cy="1159.33" r="26.35" style="fill:#1A476F"/>
	<circle cx="1684.36" cy="1159.33" r="22.03" style="fill:none;stroke:#1A476F;stroke-width:8.64"/>
	<circle cx="1673.72" cy="1136.80" r="26.35" style="fill:#1A476F"/>
	<circle cx="1673.72" cy="1136.80" r="22.03" style="fill:none;stroke:#1A476F;stroke-width:8.64"/>
	<circle cx="1662.95" cy="1114.16" r="26.35" style="fill:#1A476F"/>
	<circle cx="1662.95" cy="1114.16" r="22.03" style="fill:none;stroke:#1A476F;stroke-width:8.64"/>
	<circle cx="1652.06" cy="1091.51" r="26.35" style="fill:#1A476F"/>
	<circle cx="1652.06" cy="1091.51" r="22.03" style="fill:none;stroke:#1A476F;stroke-width:8.64"/>
	<circle cx="1641.05" cy="1068.86" r="26.35" style="fill:#1A476F"/>
	<circle cx="1641.05" cy="1068.86" r="22.03" style="fill:none;stroke:#1A476F;stroke-width:8.64"/>
	<circle cx="1629.79" cy="1046.34" r="26.35" style="fill:#1A476F"/>
	<circle cx="1629.79" cy="1046.34" r="22.03" style="fill:none;stroke:#1A476F;stroke-width:8.64"/>
	<circle cx="1618.40" cy="1023.69" r="26.35" style="fill:#1A476F"/>
	<circle cx="1618.40" cy="1023.69" r="22.03" style="fill:none;stroke:#1A476F;stroke-width:8.64"/>
	<circle cx="1606.77" cy="1001.05" r="26.35" style="fill:#1A476F"/>
	<circle cx="1606.77" cy="1001.05" r="22.03" style="fill:none;stroke:#1A476F;stroke-width:8.64"/>
	<circle cx="1595.01" cy="978.40" r="26.35" style="fill:#1A476F"/>
	<circle cx="1595.01" cy="978.40" r="22.03" style="fill:none;stroke:#1A476F;stroke-width:8.64"/>
	<circle cx="1583.01" cy="955.75" r="26.35" style="fill:#1A476F"/>
	<circle cx="1583.01" cy="955.75" r="22.03" style="fill:none;stroke:#1A476F;stroke-width:8.64"/>
	<circle cx="1570.76" cy="933.23" r="26.35" style="fill:#1A476F"/>
	<circle cx="1570.76" cy="933.23" r="22.03" style="fill:none;stroke:#1A476F;stroke-width:8.64"/>
	<circle cx="1558.26" cy="910.58" r="26.35" style="fill:#1A476F"/>
	<circle cx="1558.26" cy="910.58" r="22.03" style="fill:none;stroke:#1A476F;stroke-width:8.64"/>
	<circle cx="1545.64" cy="887.93" r="26.35" style="fill:#1A476F"/>
	<circle cx="1545.64" cy="887.93" r="22.03" style="fill:none;stroke:#1A476F;stroke-width:8.64"/>
	<circle cx="1532.64" cy="865.29" r="26.35" style="fill:#1A476F"/>
	<circle cx="1532.64" cy="865.29" r="22.03" style="fill:none;stroke:#1A476F;stroke-width:8.64"/>
	<circle cx="1519.28" cy="842.76" r="26.35" style="fill:#1A476F"/>
	<circle cx="1519.28" cy="842.76" r="22.03" style="fill:none;stroke:#1A476F;stroke-width:8.64"/>
	<circle cx="1505.67" cy="820.12" r="26.35" style="fill:#1A476F"/>
	<circle cx="1505.67" cy="820.12" r="22.03" style="fill:none;stroke:#1A476F;stroke-width:8.64"/>
	<circle cx="1491.81" cy="797.47" r="26.35" style="fill:#1A476F"/>
	<circle cx="1491.81" cy="797.47" r="22.03" style="fill:none;stroke:#1A476F;stroke-width:8.64"/>
	<circle cx="1477.58" cy="774.82" r="26.35" style="fill:#1A476F"/>
	<circle cx="1477.58" cy="774.82" r="22.03" style="fill:none;stroke:#1A476F;stroke-width:8.64"/>
	<circle cx="1462.97" cy="752.30" r="26.35" style="fill:#1A476F"/>
	<circle cx="1462.97" cy="752.30" r="22.03" style="fill:none;stroke:#1A476F;stroke-width:8.64"/>
	<circle cx="1447.88" cy="729.65" r="26.35" style="fill:#1A476F"/>
	<circle cx="1447.88" cy="729.65" r="22.03" style="fill:none;stroke:#1A476F;stroke-width:8.64"/>
	<circle cx="1432.41" cy="707.01" r="26.35" style="fill:#1A476F"/>
	<circle cx="1432.41" cy="707.01" r="22.03" style="fill:none;stroke:#1A476F;stroke-width:8.64"/>
	<circle cx="1416.44" cy="684.36" r="26.35" style="fill:#1A476F"/>
	<circle cx="1416.44" cy="684.36" r="22.03" style="fill:none;stroke:#1A476F;stroke-width:8.64"/>
	<circle cx="1399.98" cy="661.84" r="26.35" style="fill:#1A476F"/>
	<circle cx="1399.98" cy="661.84" r="22.03" style="fill:none;stroke:#1A476F;stroke-width:8.64"/>
	<circle cx="1383.03" cy="639.19" r="26.35" style="fill:#1A476F"/>
	<circle cx="1383.03" cy="639.19" r="22.03" style="fill:none;stroke:#1A476F;stroke-width:8.64"/>
	<circle cx="1365.46" cy="616.54" r="26.35" style="fill:#1A476F"/>
	<circle cx="1365.46" cy="616.54" r="22.03" style="fill:none;stroke:#1A476F;stroke-width:8.64"/>
	<circle cx="1347.14" cy="593.89" r="26.35" style="fill:#1A476F"/>
	<circle cx="1347.14" cy="593.89" r="22.03" style="fill:none;stroke:#1A476F;stroke-width:8.64"/>
	<circle cx="1328.09" cy="571.37" r="26.35" style="fill:#1A476F"/>
	<circle cx="1328.09" cy="571.37" r="22.03" style="fill:none;stroke:#1A476F;stroke-width:8.64"/>
	<circle cx="1308.29" cy="548.72" r="26.35" style="fill:#1A476F"/>
	<circle cx="1308.29" cy="548.72" r="22.03" style="fill:none;stroke:#1A476F;stroke-width:8.64"/>
	<circle cx="1287.49" cy="526.08" r="26.35" style="fill:#1A476F"/>
	<circle cx="1287.49" cy="526.08" r="22.03" style="fill:none;stroke:#1A476F;stroke-width:8.64"/>
	<circle cx="1265.71" cy="503.43" r="26.35" style="fill:#1A476F"/>
	<circle cx="1265.71" cy="503.43" r="22.03" style="fill:none;stroke:#1A476F;stroke-width:8.64"/>
	<circle cx="1242.70" cy="480.91" r="26.35" style="fill:#1A476F"/>
	<circle cx="1242.70" cy="480.91" r="22.03" style="fill:none;stroke:#1A476F;stroke-width:8.64"/>
	<circle cx="1218.44" cy="458.26" r="26.35" style="fill:#1A476F"/>
	<circle cx="1218.44" cy="458.26" r="22.03" style="fill:none;stroke:#1A476F;stroke-width:8.64"/>
	<circle cx="1192.70" cy="435.61" r="26.35" style="fill:#1A476F"/>
	<circle cx="1192.70" cy="435.61" r="22.03" style="fill:none;stroke:#1A476F;stroke-width:8.64"/>
	<circle cx="1165.11" cy="412.97" r="26.35" style="fill:#1A476F"/>
	<circle cx="1165.11" cy="412.97" r="22.03" style="fill:none;stroke:#1A476F;stroke-width:8.64"/>
	<circle cx="1135.41" cy="390.44" r="26.35" style="fill:#1A476F"/>
	<circle cx="1135.41" cy="390.44" r="22.03" style="fill:none;stroke:#1A476F;stroke-width:8.64"/>
	<circle cx="1103.11" cy="367.80" r="26.35" style="fill:#1A476F"/>
	<circle cx="1103.11" cy="367.80" r="22.03" style="fill:none;stroke:#1A476F;stroke-width:8.64"/>
	<circle cx="1067.84" cy="345.15" r="26.35" style="fill:#1A476F"/>
	<circle cx="1067.84" cy="345.15" r="22.03" style="fill:none;stroke:#1A476F;stroke-width:8.64"/>
	<circle cx="1028.61" cy="322.50" r="26.35" style="fill:#1A476F"/>
	<circle cx="1028.61" cy="322.50" r="22.03" style="fill:none;stroke:#1A476F;stroke-width:8.64"/>
	<circle cx="984.43" cy="299.98" r="26.35" style="fill:#1A476F"/>
	<circle cx="984.43" cy="299.98" r="22.03" style="fill:none;stroke:#1A476F;stroke-width:8.64"/>
	<circle cx="933.57" cy="277.33" r="26.35" style="fill:#1A476F"/>
	<circle cx="933.57" cy="277.33" r="22.03" style="fill:none;stroke:#1A476F;stroke-width:8.64"/>
	<circle cx="872.93" cy="254.69" r="26.35" style="fill:#1A476F"/>
	<circle cx="872.93" cy="254.69" r="22.03" style="fill:none;stroke:#1A476F;stroke-width:8.64"/>
	<circle cx="797.45" cy="232.04" r="26.35" style="fill:#1A476F"/>
	<circle cx="797.45" cy="232.04" r="22.03" style="fill:none;stroke:#1A476F;stroke-width:8.64"/>
	<circle cx="695.48" cy="209.52" r="26.35" style="fill:#1A476F"/>
	<circle cx="695.48" cy="209.52" r="22.03" style="fill:none;stroke:#1A476F;stroke-width:8.64"/>
	<circle cx="531.01" cy="186.87" r="26.35" style="fill:#1A476F"/>
	<circle cx="531.01" cy="186.87" r="22.03" style="fill:none;stroke:#1A476F;stroke-width:8.64"/>
	<circle cx="2241.11" cy="2199.72" r="26.35" style="fill:#1A476F"/>
	<circle cx="2241.11" cy="2199.72" r="22.03" style="fill:none;stroke:#1A476F;stroke-width:8.64"/>
	<circle cx="2249.03" cy="2177.08" r="26.35" style="fill:#1A476F"/>
	<circle cx="2249.03" cy="2177.08" r="22.03" style="fill:none;stroke:#1A476F;stroke-width:8.64"/>
	<circle cx="2256.83" cy="2154.55" r="26.35" style="fill:#1A476F"/>
	<circle cx="2256.83" cy="2154.55" r="22.03" style="fill:none;stroke:#1A476F;stroke-width:8.64"/>
	<circle cx="2264.63" cy="2131.91" r="26.35" style="fill:#1A476F"/>
	<circle cx="2264.63" cy="2131.91" r="22.03" style="fill:none;stroke:#1A476F;stroke-width:8.64"/>
	<circle cx="2272.55" cy="2109.26" r="26.35" style="fill:#1A476F"/>
	<circle cx="2272.55" cy="2109.26" r="22.03" style="fill:none;stroke:#1A476F;stroke-width:8.64"/>
	<circle cx="2280.47" cy="2086.61" r="26.35" style="fill:#1A476F"/>
	<circle cx="2280.47" cy="2086.61" r="22.03" style="fill:none;stroke:#1A476F;stroke-width:8.64"/>
	<circle cx="2288.39" cy="2064.09" r="26.35" style="fill:#1A476F"/>
	<circle cx="2288.39" cy="2064.09" r="22.03" style="fill:none;stroke:#1A476F;stroke-width:8.64"/>
	<circle cx="2296.30" cy="2041.44" r="26.35" style="fill:#1A476F"/>
	<circle cx="2296.30" cy="2041.44" r="22.03" style="fill:none;stroke:#1A476F;stroke-width:8.64"/>
	<circle cx="2304.23" cy="2018.80" r="26.35" style="fill:#1A476F"/>
	<circle cx="2304.23" cy="2018.80" r="22.03" style="fill:none;stroke:#1A476F;stroke-width:8.64"/>
	<circle cx="2312.27" cy="1996.15" r="26.35" style="fill:#1A476F"/>
	<circle cx="2312.27" cy="1996.15" r="22.03" style="fill:none;stroke:#1A476F;stroke-width:8.64"/>
	<circle cx="2320.19" cy="1973.63" r="26.35" style="fill:#1A476F"/>
	<circle cx="2320.19" cy="1973.63" r="22.03" style="fill:none;stroke:#1A476F;stroke-width:8.64"/>
	<circle cx="2328.23" cy="1950.98" r="26.35" style="fill:#1A476F"/>
	<circle cx="2328.23" cy="1950.98" r="22.03" style="fill:none;stroke:#1A476F;stroke-width:8.64"/>
	<circle cx="2336.28" cy="1928.33" r="26.35" style="fill:#1A476F"/>
	<circle cx="2336.28" cy="1928.33" r="22.03" style="fill:none;stroke:#1A476F;stroke-width:8.64"/>
	<circle cx="2344.44" cy="1905.69" r="26.35" style="fill:#1A476F"/>
	<circle cx="2344.44" cy="1905.69" r="22.03" style="fill:none;stroke:#1A476F;stroke-width:8.64"/>
	<circle cx="2352.49" cy="1883.16" r="26.35" style="fill:#1A476F"/>
	<circle cx="2352.49" cy="1883.16" r="22.03" style="fill:none;stroke:#1A476F;stroke-width:8.64"/>
	<circle cx="2360.66" cy="1860.52" r="26.35" style="fill:#1A476F"/>
	<circle cx="2360.66" cy="1860.52" r="22.03" style="fill:none;stroke:#1A476F;stroke-width:8.64"/>
	<circle cx="2368.82" cy="1837.87" r="26.35" style="fill:#1A476F"/>
	<circle cx="2368.82" cy="1837.87" r="22.03" style="fill:none;stroke:#1A476F;stroke-width:8.64"/>
	<circle cx="2377.11" cy="1815.22" r="26.35" style="fill:#1A476F"/>
	<circle cx="2377.11" cy="1815.22" r="22.03" style="fill:none;stroke:#1A476F;stroke-width:8.64"/>
	<circle cx="2385.41" cy="1792.57" r="26.35" style="fill:#1A476F"/>
	<circle cx="2385.41" cy="1792.57" r="22.03" style="fill:none;stroke:#1A476F;stroke-width:8.64"/>
	<circle cx="2393.70" cy="1770.05" r="26.35" style="fill:#1A476F"/>
	<circle cx="2393.70" cy="1770.05" r="22.03" style="fill:none;stroke:#1A476F;stroke-width:8.64"/>
	<circle cx="2401.99" cy="1747.40" r="26.35" style="fill:#1A476F"/>
	<circle cx="2401.99" cy="1747.40" r="22.03" style="fill:none;stroke:#1A476F;stroke-width:8.64"/>
	<circle cx="2410.40" cy="1724.76" r="26.35" style="fill:#1A476F"/>
	<circle cx="2410.40" cy="1724.76" r="22.03" style="fill:none;stroke:#1A476F;stroke-width:8.64"/>
	<circle cx="2418.82" cy="1702.11" r="26.35" style="fill:#1A476F"/>
	<circle cx="2418.82" cy="1702.11" r="22.03" style="fill:none;stroke:#1A476F;stroke-width:8.64"/>
	<circle cx="2427.36" cy="1679.59" r="26.35" style="fill:#1A476F"/>
	<circle cx="2427.36" cy="1679.59" r="22.03" style="fill:none;stroke:#1A476F;stroke-width:8.64"/>
	<circle cx="2435.90" cy="1656.94" r="26.35" style="fill:#1A476F"/>
	<circle cx="2435.90" cy="1656.94" r="22.03" style="fill:none;stroke:#1A476F;stroke-width:8.64"/>
	<circle cx="2444.43" cy="1634.29" r="26.35" style="fill:#1A476F"/>
	<circle cx="2444.43" cy="1634.29" r="22.03" style="fill:none;stroke:#1A476F;stroke-width:8.64"/>
	<circle cx="2453.10" cy="1611.65" r="26.35" style="fill:#1A476F"/>
	<circle cx="2453.10" cy="1611.65" r="22.03" style="fill:none;stroke:#1A476F;stroke-width:8.64"/>
	<circle cx="2461.88" cy="1589.12" r="26.35" style="fill:#1A476F"/>
	<circle cx="2461.88" cy="1589.12" r="22.03" style="fill:none;stroke:#1A476F;stroke-width:8.64"/>
	<circle cx="2470.55" cy="1566.48" r="26.35" style="fill:#1A476F"/>
	<circle cx="2470.55" cy="1566.48" r="22.03" style="fill:none;stroke:#1A476F;stroke-width:8.64"/>
	<circle cx="2479.46" cy="1543.83" r="26.35" style="fill:#1A476F"/>
	<circle cx="2479.46" cy="1543.83" r="22.03" style="fill:none;stroke:#1A476F;stroke-width:8.64"/>
	<circle cx="2488.36" cy="1521.18" r="26.35" style="fill:#1A476F"/>
	<circle cx="2488.36" cy="1521.18" r="22.03" style="fill:none;stroke:#1A476F;stroke-width:8.64"/>
	<circle cx="2497.28" cy="1498.66" r="26.35" style="fill:#1A476F"/>
	<circle cx="2497.28" cy="1498.66" r="22.03" style="fill:none;stroke:#1A476F;stroke-width:8.64"/>
	<circle cx="2506.31" cy="1476.01" r="26.35" style="fill:#1A476F"/>
	<circle cx="2506.31" cy="1476.01" r="22.03" style="fill:none;stroke:#1A476F;stroke-width:8.64"/>
	<circle cx="2515.47" cy="1453.37" r="26.35" style="fill:#1A476F"/>
	<circle cx="2515.47" cy="1453.37" r="22.03" style="fill:none;stroke:#1A476F;stroke-width:8.64"/>
	<circle cx="2524.62" cy="1430.72" r="26.35" style="fill:#1A476F"/>
	<circle cx="2524.62" cy="1430.72" r="22.03" style="fill:none;stroke:#1A476F;stroke-width:8.64"/>
	<circle cx="2533.91" cy="1408.20" r="26.35" style="fill:#1A476F"/>
	<circle cx="2533.91" cy="1408.20" r="22.03" style="fill:none;stroke:#1A476F;stroke-width:8.64"/>
	<circle cx="2543.19" cy="1385.55" r="26.35" style="fill:#1A476F"/>
	<circle cx="2543.19" cy="1385.55" r="22.03" style="fill:none;stroke:#1A476F;stroke-width:8.64"/>
	<circle cx="2552.72" cy="1362.90" r="26.35" style="fill:#1A476F"/>
	<circle cx="2552.72" cy="1362.90" r="22.03" style="fill:none;stroke:#1A476F;stroke-width:8.64"/>
	<circle cx="2562.24" cy="1340.25" r="26.35" style="fill:#1A476F"/>
	<circle cx="2562.24" cy="1340.25" r="22.03" style="fill:none;stroke:#1A476F;stroke-width:8.64"/>
	<circle cx="2571.90" cy="1317.73" r="26.35" style="fill:#1A476F"/>
	<circle cx="2571.90" cy="1317.73" r="22.03" style="fill:none;stroke:#1A476F;stroke-width:8.64"/>
	<circle cx="2581.55" cy="1295.08" r="26.35" style="fill:#1A476F"/>
	<circle cx="2581.55" cy="1295.08" r="22.03" style="fill:none;stroke:#1A476F;stroke-width:8.64"/>
	<circle cx="2591.45" cy="1272.44" r="26.35" style="fill:#1A476F"/>
	<circle cx="2591.45" cy="1272.44" r="22.03" style="fill:none;stroke:#1A476F;stroke-width:8.64"/>
	<circle cx="2601.35" cy="1249.79" r="26.35" style="fill:#1A476F"/>
	<circle cx="2601.35" cy="1249.79" r="22.03" style="fill:none;stroke:#1A476F;stroke-width:8.64"/>
	<circle cx="2611.50" cy="1227.27" r="26.35" style="fill:#1A476F"/>
	<circle cx="2611.50" cy="1227.27" r="22.03" style="fill:none;stroke:#1A476F;stroke-width:8.64"/>
	<circle cx="2621.64" cy="1204.62" r="26.35" style="fill:#1A476F"/>
	<circle cx="2621.64" cy="1204.62" r="22.03" style="fill:none;stroke:#1A476F;stroke-width:8.64"/>
	<circle cx="2631.92" cy="1181.97" r="26.35" style="fill:#1A476F"/>
	<circle cx="2631.92" cy="1181.97" r="22.03" style="fill:none;stroke:#1A476F;stroke-width:8.64"/>
	<circle cx="2642.43" cy="1159.33" r="26.35" style="fill:#1A476F"/>
	<circle cx="2642.43" cy="1159.33" r="22.03" style="fill:none;stroke:#1A476F;stroke-width:8.64"/>
	<circle cx="2652.95" cy="1136.80" r="26.35" style="fill:#1A476F"/>
	<circle cx="2652.95" cy="1136.80" r="22.03" style="fill:none;stroke:#1A476F;stroke-width:8.64"/>
	<circle cx="2663.72" cy="1114.16" r="26.35" style="fill:#1A476F"/>
	<circle cx="2663.72" cy="1114.16" r="22.03" style="fill:none;stroke:#1A476F;stroke-width:8.64"/>
	<circle cx="2674.61" cy="1091.51" r="26.35" style="fill:#1A476F"/>
	<circle cx="2674.61" cy="1091.51" r="22.03" style="fill:none;stroke:#1A476F;stroke-width:8.64"/>
	<circle cx="2685.62" cy="1068.86" r="26.35" style="fill:#1A476F"/>
	<circle cx="2685.62" cy="1068.86" r="22.03" style="fill:none;stroke:#1A476F;stroke-width:8.64"/>
	<circle cx="2696.88" cy="1046.34" r="26.35" style="fill:#1A476F"/>
	<circle cx="2696.88" cy="1046.34" r="22.03" style="fill:none;stroke:#1A476F;stroke-width:8.64"/>
	<circle cx="2708.27" cy="1023.69" r="26.35" style="fill:#1A476F"/>
	<circle cx="2708.27" cy="1023.69" r="22.03" style="fill:none;stroke:#1A476F;stroke-width:8.64"/>
	<circle cx="2719.90" cy="1001.05" r="26.35" style="fill:#1A476F"/>
	<circle cx="2719.90" cy="1001.05" r="22.03" style="fill:none;stroke:#1A476F;stroke-width:8.64"/>
	<circle cx="2731.66" cy="978.40" r="26.35" style="fill:#1A476F"/>
	<circle cx="2731.66" cy="978.40" r="22.03" style="fill:none;stroke:#1A476F;stroke-width:8.64"/>
	<circle cx="2743.66" cy="955.75" r="26.35" style="fill:#1A476F"/>
	<circle cx="2743.66" cy="955.75" r="22.03" style="fill:none;stroke:#1A476F;stroke-width:8.64"/>
	<circle cx="2755.91" cy="933.23" r="26.35" style="fill:#1A476F"/>
	<circle cx="2755.91" cy="933.23" r="22.03" style="fill:none;stroke:#1A476F;stroke-width:8.64"/>
	<circle cx="2768.41" cy="910.58" r="26.35" style="fill:#1A476F"/>
	<circle cx="2768.41" cy="910.58" r="22.03" style="fill:none;stroke:#1A476F;stroke-width:8.64"/>
	<circle cx="2781.16" cy="887.93" r="26.35" style="fill:#1A476F"/>
	<circle cx="2781.16" cy="887.93" r="22.03" style="fill:none;stroke:#1A476F;stroke-width:8.64"/>
	<circle cx="2794.15" cy="865.29" r="26.35" style="fill:#1A476F"/>
	<circle cx="2794.15" cy="865.29" r="22.03" style="fill:none;stroke:#1A476F;stroke-width:8.64"/>
	<circle cx="2807.39" cy="842.76" r="26.35" style="fill:#1A476F"/>
	<circle cx="2807.39" cy="842.76" r="22.03" style="fill:none;stroke:#1A476F;stroke-width:8.64"/>
	<circle cx="2821.01" cy="820.12" r="26.35" style="fill:#1A476F"/>
	<circle cx="2821.01" cy="820.12" r="22.03" style="fill:none;stroke:#1A476F;stroke-width:8.64"/>
	<circle cx="2834.87" cy="797.47" r="26.35" style="fill:#1A476F"/>
	<circle cx="2834.87" cy="797.47" r="22.03" style="fill:none;stroke:#1A476F;stroke-width:8.64"/>
	<circle cx="2849.10" cy="774.82" r="26.35" style="fill:#1A476F"/>
	<circle cx="2849.10" cy="774.82" r="22.03" style="fill:none;stroke:#1A476F;stroke-width:8.64"/>
	<circle cx="2863.82" cy="752.30" r="26.35" style="fill:#1A476F"/>
	<circle cx="2863.82" cy="752.30" r="22.03" style="fill:none;stroke:#1A476F;stroke-width:8.64"/>
	<circle cx="2878.80" cy="729.65" r="26.35" style="fill:#1A476F"/>
	<circle cx="2878.80" cy="729.65" r="22.03" style="fill:none;stroke:#1A476F;stroke-width:8.64"/>
	<circle cx="2894.27" cy="707.01" r="26.35" style="fill:#1A476F"/>
	<circle cx="2894.27" cy="707.01" r="22.03" style="fill:none;stroke:#1A476F;stroke-width:8.64"/>
	<circle cx="2910.23" cy="684.36" r="26.35" style="fill:#1A476F"/>
	<circle cx="2910.23" cy="684.36" r="22.03" style="fill:none;stroke:#1A476F;stroke-width:8.64"/>
	<circle cx="2926.69" cy="661.84" r="26.35" style="fill:#1A476F"/>
	<circle cx="2926.69" cy="661.84" r="22.03" style="fill:none;stroke:#1A476F;stroke-width:8.64"/>
	<circle cx="2943.64" cy="639.19" r="26.35" style="fill:#1A476F"/>
	<circle cx="2943.64" cy="639.19" r="22.03" style="fill:none;stroke:#1A476F;stroke-width:8.64"/>
	<circle cx="2961.34" cy="616.54" r="26.35" style="fill:#1A476F"/>
	<circle cx="2961.34" cy="616.54" r="22.03" style="fill:none;stroke:#1A476F;stroke-width:8.64"/>
	<circle cx="2979.65" cy="593.89" r="26.35" style="fill:#1A476F"/>
	<circle cx="2979.65" cy="593.89" r="22.03" style="fill:none;stroke:#1A476F;stroke-width:8.64"/>
	<circle cx="2998.59" cy="571.37" r="26.35" style="fill:#1A476F"/>
	<circle cx="2998.59" cy="571.37" r="22.03" style="fill:none;stroke:#1A476F;stroke-width:8.64"/>
	<circle cx="3018.51" cy="548.72" r="26.35" style="fill:#1A476F"/>
	<circle cx="3018.51" cy="548.72" r="22.03" style="fill:none;stroke:#1A476F;stroke-width:8.64"/>
	<circle cx="3039.18" cy="526.08" r="26.35" style="fill:#1A476F"/>
	<circle cx="3039.18" cy="526.08" r="22.03" style="fill:none;stroke:#1A476F;stroke-width:8.64"/>
	<circle cx="3061.08" cy="503.43" r="26.35" style="fill:#1A476F"/>
	<circle cx="3061.08" cy="503.43" r="22.03" style="fill:none;stroke:#1A476F;stroke-width:8.64"/>
	<circle cx="3083.97" cy="480.91" r="26.35" style="fill:#1A476F"/>
	<circle cx="3083.97" cy="480.91" r="22.03" style="fill:none;stroke:#1A476F;stroke-width:8.64"/>
	<circle cx="3108.23" cy="458.26" r="26.35" style="fill:#1A476F"/>
	<circle cx="3108.23" cy="458.26" r="22.03" style="fill:none;stroke:#1A476F;stroke-width:8.64"/>
	<circle cx="3134.09" cy="435.61" r="26.35" style="fill:#1A476F"/>
	<circle cx="3134.09" cy="435.61" r="22.03" style="fill:none;stroke:#1A476F;stroke-width:8.64"/>
	<circle cx="3161.69" cy="412.97" r="26.35" style="fill:#1A476F"/>
	<circle cx="3161.69" cy="412.97" r="22.03" style="fill:none;stroke:#1A476F;stroke-width:8.64"/>
	<circle cx="3191.39" cy="390.44" r="26.35" style="fill:#1A476F"/>
	<circle cx="3191.39" cy="390.44" r="22.03" style="fill:none;stroke:#1A476F;stroke-width:8.64"/>
	<circle cx="3223.56" cy="367.80" r="26.35" style="fill:#1A476F"/>
	<circle cx="3223.56" cy="367.80" r="22.03" style="fill:none;stroke:#1A476F;stroke-width:8.64"/>
	<circle cx="3258.83" cy="345.15" r="26.35" style="fill:#1A476F"/>
	<circle cx="3258.83" cy="345.15" r="22.03" style="fill:none;stroke:#1A476F;stroke-width:8.64"/>
	<circle cx="3298.06" cy="322.50" r="26.35" style="fill:#1A476F"/>
	<circle cx="3298.06" cy="322.50" r="22.03" style="fill:none;stroke:#1A476F;stroke-width:8.64"/>
	<circle cx="3342.24" cy="299.98" r="26.35" style="fill:#1A476F"/>
	<circle cx="3342.24" cy="299.98" r="22.03" style="fill:none;stroke:#1A476F;stroke-width:8.64"/>
	<circle cx="3393.23" cy="277.33" r="26.35" style="fill:#1A476F"/>
	<circle cx="3393.23" cy="277.33" r="22.03" style="fill:none;stroke:#1A476F;stroke-width:8.64"/>
	<circle cx="3453.74" cy="254.69" r="26.35" style="fill:#1A476F"/>
	<circle cx="3453.74" cy="254.69" r="22.03" style="fill:none;stroke:#1A476F;stroke-width:8.64"/>
	<circle cx="3529.23" cy="232.04" r="26.35" style="fill:#1A476F"/>
	<circle cx="3529.23" cy="232.04" r="22.03" style="fill:none;stroke:#1A476F;stroke-width:8.64"/>
	<circle cx="3631.20" cy="209.52" r="26.35" style="fill:#1A476F"/>
	<circle cx="3631.20" cy="209.52" r="22.03" style="fill:none;stroke:#1A476F;stroke-width:8.64"/>
	<circle cx="3795.66" cy="186.87" r="26.35" style="fill:#1A476F"/>
	<circle cx="3795.66" cy="186.87" r="22.03" style="fill:none;stroke:#1A476F;stroke-width:8.64"/>
	<line x1="390.80" y1="2489.19" x2="390.80" y2="100.86" style="stroke:#000000;stroke-width:5.76"/>
	<line x1="390.80" y1="2425.82" x2="350.83" y2="2425.82" style="stroke:#000000;stroke-width:5.76"/>
	<text x="300.72" y="2425.82" style="font-family:'Helvetica';font-size:99.99px;fill:#000000" transform="rotate(-90 300.72,2425.82)" text-anchor="middle">0</text>
	<line x1="390.80" y1="1973.50" x2="350.83" y2="1973.50" style="stroke:#000000;stroke-width:5.76"/>
	<text x="300.72" y="1973.50" style="font-family:'Helvetica';font-size:99.99px;fill:#000000" transform="rotate(-90 300.72,1973.50)" text-anchor="middle">20</text>
	<line x1="390.80" y1="1521.18" x2="350.83" y2="1521.18" style="stroke:#000000;stroke-width:5.76"/>
	<text x="300.72" y="1521.18" style="font-family:'Helvetica';font-size:99.99px;fill:#000000" transform="rotate(-90 300.72,1521.18)" text-anchor="middle">40</text>
	<line x1="390.80" y1="1068.86" x2="350.83" y2="1068.86" style="stroke:#000000;stroke-width:5.76"/>
	<text x="300.72" y="1068.86" style="font-family:'Helvetica';font-size:99.99px;fill:#000000" transform="rotate(-90 300.72,1068.86)" text-anchor="middle">60</text>
	<line x1="390.80" y1="616.54" x2="350.83" y2="616.54" style="stroke:#000000;stroke-width:5.76"/>
	<text x="300.72" y="616.54" style="font-family:'Helvetica';font-size:99.99px;fill:#000000" transform="rotate(-90 300.72,616.54)" text-anchor="middle">80</text>
	<line x1="390.80" y1="164.22" x2="350.83" y2="164.22" style="stroke:#000000;stroke-width:5.76"/>
	<text x="300.72" y="164.22" style="font-family:'Helvetica';font-size:99.99px;fill:#000000" transform="rotate(-90 300.72,164.22)" text-anchor="middle">100</text>
	<text x="190.71" y="1294.96" style="font-family:'Helvetica';font-size:99.99px;fill:#000000" transform="rotate(-90 190.71,1294.96)" text-anchor="middle">level</text>
	<line x1="390.80" y1="2489.19" x2="3859.02" y2="2489.19" style="stroke:#000000;stroke-width:5.76"/>
	<line x1="454.16" y1="2489.19" x2="454.16" y2="2529.16" style="stroke:#000000;stroke-width:5.76"/>
	<text x="454.16" y="2619.14" style="font-family:'Helvetica';font-size:99.99px;fill:#000000" text-anchor="middle">1</text>
	<line x1="1272.77" y1="2489.19" x2="1272.77" y2="2529.16" style="stroke:#000000;stroke-width:5.76"/>
	<text x="1272.77" y="2619.14" style="font-family:'Helvetica';font-size:99.99px;fill:#000000" text-anchor="middle">1.5</text>
	<line x1="2091.25" y1="2489.19" x2="2091.25" y2="2529.16" style="stroke:#000000;stroke-width:5.76"/>
	<text x="2091.25" y="2619.14" style="font-family:'Helvetica';font-size:99.99px;fill:#000000" text-anchor="middle">2</text>
	<line x1="2909.86" y1="2489.19" x2="2909.86" y2="2529.16" style="stroke:#000000;stroke-width:5.76"/>
	<text x="2909.86" y="2619.14" style="font-family:'Helvetica';font-size:99.99px;fill:#000000" text-anchor="middle">2.5</text>
	<line x1="3728.46" y1="2489.19" x2="3728.46" y2="2529.16" style="stroke:#000000;stroke-width:5.76"/>
	<text x="3728.46" y="2619.14" style="font-family:'Helvetica';font-size:99.99px;fill:#000000" text-anchor="middle">3</text>
	<text x="2124.91" y="2729.16" style="font-family:'Helvetica';font-size:99.99px;fill:#000000" text-anchor="middle">lointerval/upinterval</text>
</svg>
