<?xml version="1.0" encoding="UTF-8" standalone="no"?>
<!-- Created with Inkscape (http://www.inkscape.org/) -->

<svg
   width="183.75011mm"
   height="132.19221mm"
   viewBox="0 0 183.75011 132.19221"
   version="1.1"
   id="svg73646"
   sodipodi:docname="Standard Normal Distribution.svg"
   inkscape:version="1.1.1 (3bf5ae0d25, 2021-09-20)"
   xmlns:inkscape="http://www.inkscape.org/namespaces/inkscape"
   xmlns:sodipodi="http://sodipodi.sourceforge.net/DTD/sodipodi-0.dtd"
   xmlns="http://www.w3.org/2000/svg"
   xmlns:svg="http://www.w3.org/2000/svg">
  <sodipodi:namedview
     id="namedview61"
     pagecolor="#ffffff"
     bordercolor="#666666"
     borderopacity="1.0"
     inkscape:pageshadow="2"
     inkscape:pageopacity="0.0"
     inkscape:pagecheckerboard="0"
     inkscape:document-units="mm"
     showgrid="false"
     inkscape:zoom="1.7993527"
     inkscape:cx="310.94515"
     inkscape:cy="300.94156"
     inkscape:window-width="2560"
     inkscape:window-height="1361"
     inkscape:window-x="-9"
     inkscape:window-y="-9"
     inkscape:window-maximized="1"
     inkscape:current-layer="svg73646"
     lock-margins="true"
     fit-margin-top="5"
     fit-margin-left="5"
     fit-margin-right="5"
     fit-margin-bottom="5" />
  <defs
     id="defs73643" />
  <polyline
     points="37.44,305.03 492.52,305.03"
     style="fill:none;stroke:#e6e6e6;stroke-width:1.07;stroke-linecap:butt;stroke-linejoin:round;stroke-miterlimit:10"
     id="polyline21772"
     transform="matrix(0.35277777,0,0,0.35277777,4.9999983,5.0000006)" />
  <polyline
     points="37.44,233.52 492.52,233.52"
     style="fill:none;stroke:#e6e6e6;stroke-width:1.07;stroke-linecap:butt;stroke-linejoin:round;stroke-miterlimit:10"
     id="polyline21774"
     transform="matrix(0.35277777,0,0,0.35277777,4.9999983,5.0000006)" />
  <polyline
     points="37.44,162.01 492.52,162.01"
     style="fill:none;stroke:#e6e6e6;stroke-width:1.07;stroke-linecap:butt;stroke-linejoin:round;stroke-miterlimit:10"
     id="polyline21776"
     transform="matrix(0.35277777,0,0,0.35277777,4.9999983,5.0000006)" />
  <polyline
     points="37.44,90.50 492.52,90.50"
     style="fill:none;stroke:#e6e6e6;stroke-width:1.07;stroke-linecap:butt;stroke-linejoin:round;stroke-miterlimit:10"
     id="polyline21778"
     transform="matrix(0.35277777,0,0,0.35277777,4.9999983,5.0000006)" />
  <polyline
     points="37.44,18.99 492.52,18.99"
     style="fill:none;stroke:#e6e6e6;stroke-width:1.07;stroke-linecap:butt;stroke-linejoin:round;stroke-miterlimit:10"
     id="polyline21780"
     transform="matrix(0.35277777,0,0,0.35277777,4.9999983,5.0000006)" />
  <polyline
     points="58.13,319.29 58.13,5.48"
     style="fill:none;stroke:#e6e6e6;stroke-width:1.07;stroke-linecap:butt;stroke-linejoin:round;stroke-miterlimit:10"
     id="polyline21782"
     transform="matrix(0.35277777,0,0,0.35277777,4.9999983,5.0000006)" />
  <polyline
     points="109.84,319.29 109.84,5.48"
     style="fill:none;stroke:#e6e6e6;stroke-width:1.07;stroke-linecap:butt;stroke-linejoin:round;stroke-miterlimit:10"
     id="polyline21784"
     transform="matrix(0.35277777,0,0,0.35277777,4.9999983,5.0000006)" />
  <polyline
     points="161.56,319.29 161.56,5.48"
     style="fill:none;stroke:#e6e6e6;stroke-width:1.07;stroke-linecap:butt;stroke-linejoin:round;stroke-miterlimit:10"
     id="polyline21786"
     transform="matrix(0.35277777,0,0,0.35277777,4.9999983,5.0000006)" />
  <polyline
     points="213.27,319.29 213.27,5.48"
     style="fill:none;stroke:#e6e6e6;stroke-width:1.07;stroke-linecap:butt;stroke-linejoin:round;stroke-miterlimit:10"
     id="polyline21788"
     transform="matrix(0.35277777,0,0,0.35277777,4.9999983,5.0000006)" />
  <polyline
     points="264.98,319.29 264.98,5.48"
     style="fill:none;stroke:#e6e6e6;stroke-width:1.07;stroke-linecap:butt;stroke-linejoin:round;stroke-miterlimit:10"
     id="polyline21790"
     transform="matrix(0.35277777,0,0,0.35277777,4.9999983,5.0000006)" />
  <polyline
     points="316.70,319.29 316.70,5.48"
     style="fill:none;stroke:#e6e6e6;stroke-width:1.07;stroke-linecap:butt;stroke-linejoin:round;stroke-miterlimit:10"
     id="polyline21792"
     transform="matrix(0.35277777,0,0,0.35277777,4.9999983,5.0000006)" />
  <polyline
     points="368.41,319.29 368.41,5.48"
     style="fill:none;stroke:#e6e6e6;stroke-width:1.07;stroke-linecap:butt;stroke-linejoin:round;stroke-miterlimit:10"
     id="polyline21794"
     transform="matrix(0.35277777,0,0,0.35277777,4.9999983,5.0000006)" />
  <polyline
     points="420.12,319.29 420.12,5.48"
     style="fill:none;stroke:#e6e6e6;stroke-width:1.07;stroke-linecap:butt;stroke-linejoin:round;stroke-miterlimit:10"
     id="polyline21796"
     transform="matrix(0.35277777,0,0,0.35277777,4.9999983,5.0000006)" />
  <polyline
     points="471.84,319.29 471.84,5.48"
     style="fill:none;stroke:#e6e6e6;stroke-width:1.07;stroke-linecap:butt;stroke-linejoin:round;stroke-miterlimit:10"
     id="polyline21798"
     transform="matrix(0.35277777,0,0,0.35277777,4.9999983,5.0000006)" />
  <polyline
     points="37.44,269.27 492.52,269.27"
     style="fill:none;stroke:#e6e6e6;stroke-width:0.53;stroke-linecap:butt;stroke-linejoin:round;stroke-miterlimit:10;stroke-dasharray:none;stroke-opacity:1"
     id="polyline21748"
     transform="matrix(0.35277777,0,0,0.35277777,4.9999983,5.0000006)" />
  <polyline
     points="37.44,197.76 492.52,197.76"
     style="fill:none;stroke:#e6e6e6;stroke-width:0.53;stroke-linecap:butt;stroke-linejoin:round;stroke-miterlimit:10;stroke-dasharray:none;stroke-opacity:1"
     id="polyline21750"
     transform="matrix(0.35277777,0,0,0.35277777,4.9999983,5.0000006)" />
  <polyline
     points="37.44,126.25 492.52,126.25"
     style="fill:none;stroke:#e6e6e6;stroke-width:0.53;stroke-linecap:butt;stroke-linejoin:round;stroke-miterlimit:10;stroke-dasharray:none;stroke-opacity:1"
     id="polyline21752"
     transform="matrix(0.35277777,0,0,0.35277777,4.9999983,5.0000006)" />
  <polyline
     points="37.44,54.74 492.52,54.74"
     style="fill:none;stroke:#e6e6e6;stroke-width:0.53;stroke-linecap:butt;stroke-linejoin:round;stroke-miterlimit:10;stroke-dasharray:none;stroke-opacity:1"
     id="polyline21754"
     transform="matrix(0.35277777,0,0,0.35277777,4.9999983,5.0000006)" />
  <polyline
     points="83.99,319.29 83.99,5.48"
     style="fill:none;stroke:#e6e6e6;stroke-width:0.53;stroke-linecap:butt;stroke-linejoin:round;stroke-miterlimit:10;stroke-dasharray:none;stroke-opacity:1"
     id="polyline21756"
     transform="matrix(0.35277777,0,0,0.35277777,4.9999983,5.0000006)" />
  <polyline
     points="135.70,319.29 135.70,5.48"
     style="fill:none;stroke:#e6e6e6;stroke-width:0.53;stroke-linecap:butt;stroke-linejoin:round;stroke-miterlimit:10;stroke-dasharray:none;stroke-opacity:1"
     id="polyline21758"
     transform="matrix(0.35277777,0,0,0.35277777,4.9999983,5.0000006)" />
  <polyline
     points="187.41,319.29 187.41,5.48"
     style="fill:none;stroke:#e6e6e6;stroke-width:0.53;stroke-linecap:butt;stroke-linejoin:round;stroke-miterlimit:10;stroke-dasharray:none;stroke-opacity:1"
     id="polyline21760"
     transform="matrix(0.35277777,0,0,0.35277777,4.9999983,5.0000006)" />
  <polyline
     points="239.13,319.29 239.13,5.48"
     style="fill:none;stroke:#e6e6e6;stroke-width:0.53;stroke-linecap:butt;stroke-linejoin:round;stroke-miterlimit:10;stroke-dasharray:none;stroke-opacity:1"
     id="polyline21762"
     transform="matrix(0.35277777,0,0,0.35277777,4.9999983,5.0000006)" />
  <polyline
     points="290.84,319.29 290.84,5.48"
     style="fill:none;stroke:#e6e6e6;stroke-width:0.53;stroke-linecap:butt;stroke-linejoin:round;stroke-miterlimit:10;stroke-dasharray:none;stroke-opacity:1"
     id="polyline21764"
     transform="matrix(0.35277777,0,0,0.35277777,4.9999983,5.0000006)" />
  <polyline
     points="342.55,319.29 342.55,5.48"
     style="fill:none;stroke:#e6e6e6;stroke-width:0.53;stroke-linecap:butt;stroke-linejoin:round;stroke-miterlimit:10;stroke-dasharray:none;stroke-opacity:1"
     id="polyline21766"
     transform="matrix(0.35277777,0,0,0.35277777,4.9999983,5.0000006)" />
  <polyline
     points="394.27,319.29 394.27,5.48"
     style="fill:none;stroke:#e6e6e6;stroke-width:0.53;stroke-linecap:butt;stroke-linejoin:round;stroke-miterlimit:10;stroke-dasharray:none;stroke-opacity:1"
     id="polyline21768"
     transform="matrix(0.35277777,0,0,0.35277777,4.9999983,5.0000006)" />
  <polyline
     points="445.98,319.29 445.98,5.48"
     style="fill:none;stroke:#e6e6e6;stroke-width:0.53;stroke-linecap:butt;stroke-linejoin:round;stroke-miterlimit:10;stroke-dasharray:none;stroke-opacity:1"
     id="polyline21770"
     transform="matrix(0.35277777,0,0,0.35277777,4.9999983,5.0000006)" />
  <polygon
     points="178.1,235.46 181.21,228.22 184.31,220.53 187.41,212.41 190.51,203.87 193.62,194.94 196.72,185.65 199.82,176.04 202.93,166.17 206.03,156.07 209.13,145.81 212.23,135.45 215.34,125.08 218.44,114.75 221.54,104.55 224.65,94.57 227.75,84.88 230.85,75.58 233.95,66.74 237.06,58.45 240.16,50.79 243.26,43.83 246.37,37.64 249.47,32.3 252.57,27.84 255.67,24.33 258.78,21.79 261.88,20.26 264.98,19.74 268.08,20.26 271.19,21.79 274.29,24.33 277.39,27.84 280.5,32.3 283.6,37.64 286.7,43.83 289.8,50.79 292.91,58.45 296.01,66.74 299.11,75.58 302.22,84.88 305.32,94.57 308.42,104.55 311.52,114.75 314.63,125.08 317.73,135.45 320.83,145.81 323.94,156.07 327.04,166.17 330.14,176.04 333.24,185.65 336.35,194.94 339.45,203.87 342.55,212.41 345.65,220.53 348.76,228.22 351.86,235.46 354.96,242.25 358.07,248.57 361.17,254.44 364.27,259.86 367.37,264.85 370.48,269.42 373.58,273.58 376.68,277.35 379.79,280.76 382.89,283.82 385.99,286.57 389.09,289.01 392.2,291.19 395.3,293.11 398.4,294.8 401.51,296.28 404.61,297.58 407.71,298.7 410.81,299.68 413.92,300.52 417.02,301.24 420.12,301.86 420.12,305.03 417.02,305.03 413.92,305.03 410.81,305.03 407.71,305.03 404.61,305.03 401.51,305.03 398.4,305.03 395.3,305.03 392.2,305.03 389.09,305.03 385.99,305.03 382.89,305.03 379.79,305.03 376.68,305.03 373.58,305.03 370.48,305.03 367.37,305.03 364.27,305.03 361.17,305.03 358.07,305.03 354.96,305.03 351.86,305.03 348.76,305.03 345.65,305.03 342.55,305.03 339.45,305.03 336.35,305.03 333.24,305.03 330.14,305.03 327.04,305.03 323.94,305.03 320.83,305.03 317.73,305.03 314.63,305.03 311.52,305.03 308.42,305.03 305.32,305.03 302.22,305.03 299.11,305.03 296.01,305.03 292.91,305.03 289.8,305.03 286.7,305.03 283.6,305.03 280.5,305.03 277.39,305.03 274.29,305.03 271.19,305.03 268.08,305.03 264.98,305.03 261.88,305.03 258.78,305.03 255.67,305.03 252.57,305.03 249.47,305.03 246.37,305.03 243.26,305.03 240.16,305.03 237.06,305.03 233.95,305.03 230.85,305.03 227.75,305.03 224.65,305.03 221.54,305.03 218.44,305.03 215.34,305.03 212.23,305.03 209.13,305.03 206.03,305.03 202.93,305.03 199.82,305.03 196.72,305.03 193.62,305.03 190.51,305.03 187.41,305.03 184.31,305.03 181.21,305.03 178.1,305.03 175,305.03 171.9,305.03 168.8,305.03 165.69,305.03 162.59,305.03 159.49,305.03 156.38,305.03 153.28,305.03 150.18,305.03 147.08,305.03 143.97,305.03 140.87,305.03 137.77,305.03 134.66,305.03 131.56,305.03 128.46,305.03 125.36,305.03 122.25,305.03 119.15,305.03 116.05,305.03 112.94,305.03 109.84,305.03 109.84,301.86 112.94,301.24 116.05,300.52 119.15,299.68 122.25,298.7 125.36,297.58 128.46,296.28 131.56,294.8 134.66,293.11 137.77,291.19 140.87,289.01 143.97,286.57 147.08,283.82 150.18,280.76 153.28,277.35 156.38,273.58 159.49,269.42 162.59,264.85 165.69,259.86 168.8,254.44 171.9,248.57 175,242.25"
     style="fill:#832424;fill-opacity:0.266667;stroke:#e6e6e6;stroke-width:0;stroke-linecap:round;stroke-linejoin:round;stroke-miterlimit:10;stroke-opacity:1;font-variation-settings:normal;opacity:1;vector-effect:none;stroke-dasharray:none;stroke-dashoffset:0;-inkscape-stroke:none;stop-color:#000000;stop-opacity:1"
     id="polygon21810"
     transform="matrix(0.35277777,0,0,0.35277777,4.9999983,5.0000006)" />
  <polygon
     points="207.06,152.66 209.13,145.81 211.2,138.91 213.27,131.99 215.34,125.08 217.41,118.18 219.47,111.33 221.54,104.55 223.61,97.87 225.68,91.3 227.75,84.88 229.82,78.63 231.89,72.58 233.95,66.74 236.02,61.15 238.09,55.82 240.16,50.79 242.23,46.06 244.3,41.68 246.37,37.64 248.43,33.98 250.5,30.71 252.57,27.84 254.64,25.39 256.71,23.37 258.78,21.79 260.84,20.66 262.91,19.97 264.98,19.74 267.05,19.97 269.12,20.66 271.19,21.79 273.26,23.37 275.32,25.39 277.39,27.84 279.46,30.71 281.53,33.98 283.6,37.64 285.67,41.68 287.74,46.06 289.8,50.79 291.87,55.82 293.94,61.15 296.01,66.74 298.08,72.58 300.15,78.63 302.22,84.88 304.28,91.3 306.35,97.87 308.42,104.55 310.49,111.33 312.56,118.18 314.63,125.08 316.7,131.99 318.76,138.91 320.83,145.81 322.9,152.66 324.97,159.45 327.04,166.17 329.11,172.78 331.18,179.28 333.24,185.65 335.31,191.88 337.38,197.96 339.45,203.87 341.52,209.61 343.59,215.17 345.65,220.53 347.72,225.71 349.79,230.69 351.86,235.46 353.93,240.03 356,244.4 358.07,248.57 360.13,252.53 362.2,256.3 364.27,259.86 366.34,263.24 368.41,266.42 368.41,305.03 366.34,305.03 364.27,305.03 362.2,305.03 360.13,305.03 358.07,305.03 356,305.03 353.93,305.03 351.86,305.03 349.79,305.03 347.72,305.03 345.65,305.03 343.59,305.03 341.52,305.03 339.45,305.03 337.38,305.03 335.31,305.03 333.24,305.03 331.18,305.03 329.11,305.03 327.04,305.03 324.97,305.03 322.9,305.03 320.83,305.03 318.76,305.03 316.7,305.03 314.63,305.03 312.56,305.03 310.49,305.03 308.42,305.03 306.35,305.03 304.28,305.03 302.22,305.03 300.15,305.03 298.08,305.03 296.01,305.03 293.94,305.03 291.87,305.03 289.8,305.03 287.74,305.03 285.67,305.03 283.6,305.03 281.53,305.03 279.46,305.03 277.39,305.03 275.32,305.03 273.26,305.03 271.19,305.03 269.12,305.03 267.05,305.03 264.98,305.03 262.91,305.03 260.84,305.03 258.78,305.03 256.71,305.03 254.64,305.03 252.57,305.03 250.5,305.03 248.43,305.03 246.37,305.03 244.3,305.03 242.23,305.03 240.16,305.03 238.09,305.03 236.02,305.03 233.95,305.03 231.89,305.03 229.82,305.03 227.75,305.03 225.68,305.03 223.61,305.03 221.54,305.03 219.47,305.03 217.41,305.03 215.34,305.03 213.27,305.03 211.2,305.03 209.13,305.03 207.06,305.03 204.99,305.03 202.93,305.03 200.86,305.03 198.79,305.03 196.72,305.03 194.65,305.03 192.58,305.03 190.51,305.03 188.45,305.03 186.38,305.03 184.31,305.03 182.24,305.03 180.17,305.03 178.1,305.03 176.04,305.03 173.97,305.03 171.9,305.03 169.83,305.03 167.76,305.03 165.69,305.03 163.62,305.03 161.56,305.03 161.56,266.42 163.62,263.24 165.69,259.86 167.76,256.3 169.83,252.53 171.9,248.57 173.97,244.4 176.04,240.03 178.1,235.46 180.17,230.69 182.24,225.71 184.31,220.53 186.38,215.17 188.45,209.61 190.51,203.87 192.58,197.96 194.65,191.88 196.72,185.65 198.79,179.28 200.86,172.78 202.93,166.17 204.99,159.45"
     style="fill:#832424;fill-opacity:0.266667;stroke:#e6e6e6;stroke-width:0;stroke-linecap:round;stroke-linejoin:round;stroke-miterlimit:10;stroke-opacity:1;font-variation-settings:normal;opacity:1;vector-effect:none;stroke-dasharray:none;stroke-dashoffset:0;-inkscape-stroke:none;stop-color:#000000;stop-opacity:1"
     id="polygon21806"
     transform="matrix(0.35277777,0,0,0.35277777,4.9999983,5.0000006)" />
  <polygon
     points="236.02,61.15 237.06,58.45 238.09,55.82 239.13,53.27 240.16,50.79 241.19,48.38 242.23,46.06 243.26,43.83 244.3,41.68 245.33,39.62 246.37,37.64 247.4,35.77 248.43,33.98 249.47,32.3 250.5,30.71 251.54,29.23 252.57,27.84 253.61,26.56 254.64,25.39 255.67,24.33 256.71,23.37 257.74,22.53 258.78,21.79 259.81,21.17 260.84,20.66 261.88,20.26 262.91,19.97 263.95,19.8 264.98,19.74 266.02,19.8 267.05,19.97 268.08,20.26 269.12,20.66 270.15,21.17 271.19,21.79 272.22,22.53 273.26,23.37 274.29,24.33 275.32,25.39 276.36,26.56 277.39,27.84 278.43,29.23 279.46,30.71 280.5,32.3 281.53,33.98 282.56,35.77 283.6,37.64 284.63,39.62 285.67,41.68 286.7,43.83 287.74,46.06 288.77,48.38 289.8,50.79 290.84,53.27 291.87,55.82 292.91,58.45 293.94,61.15 294.98,63.91 296.01,66.74 297.04,69.63 298.08,72.58 299.11,75.58 300.15,78.63 301.18,81.73 302.22,84.88 303.25,88.07 304.28,91.3 305.32,94.57 306.35,97.87 307.39,101.2 308.42,104.55 309.46,107.93 310.49,111.33 311.52,114.75 312.56,118.18 313.59,121.63 314.63,125.08 315.66,128.53 316.7,131.99 316.7,305.03 315.66,305.03 314.63,305.03 313.59,305.03 312.56,305.03 311.52,305.03 310.49,305.03 309.46,305.03 308.42,305.03 307.39,305.03 306.35,305.03 305.32,305.03 304.28,305.03 303.25,305.03 302.22,305.03 301.18,305.03 300.15,305.03 299.11,305.03 298.08,305.03 297.04,305.03 296.01,305.03 294.98,305.03 293.94,305.03 292.91,305.03 291.87,305.03 290.84,305.03 289.8,305.03 288.77,305.03 287.74,305.03 286.7,305.03 285.67,305.03 284.63,305.03 283.6,305.03 282.56,305.03 281.53,305.03 280.5,305.03 279.46,305.03 278.43,305.03 277.39,305.03 276.36,305.03 275.32,305.03 274.29,305.03 273.26,305.03 272.22,305.03 271.19,305.03 270.15,305.03 269.12,305.03 268.08,305.03 267.05,305.03 266.02,305.03 264.98,305.03 263.95,305.03 262.91,305.03 261.88,305.03 260.84,305.03 259.81,305.03 258.78,305.03 257.74,305.03 256.71,305.03 255.67,305.03 254.64,305.03 253.61,305.03 252.57,305.03 251.54,305.03 250.5,305.03 249.47,305.03 248.43,305.03 247.4,305.03 246.37,305.03 245.33,305.03 244.3,305.03 243.26,305.03 242.23,305.03 241.19,305.03 240.16,305.03 239.13,305.03 238.09,305.03 237.06,305.03 236.02,305.03 234.99,305.03 233.95,305.03 232.92,305.03 231.89,305.03 230.85,305.03 229.82,305.03 228.78,305.03 227.75,305.03 226.71,305.03 225.68,305.03 224.65,305.03 223.61,305.03 222.58,305.03 221.54,305.03 220.51,305.03 219.47,305.03 218.44,305.03 217.41,305.03 216.37,305.03 215.34,305.03 214.3,305.03 213.27,305.03 213.27,131.99 214.3,128.53 215.34,125.08 216.37,121.63 217.41,118.18 218.44,114.75 219.47,111.33 220.51,107.93 221.54,104.55 222.58,101.2 223.61,97.87 224.65,94.57 225.68,91.3 226.71,88.07 227.75,84.88 228.78,81.73 229.82,78.63 230.85,75.58 231.89,72.58 232.92,69.63 233.95,66.74 234.99,63.91"
     style="fill:#832424;fill-opacity:0.26666668;stroke:#e6e6e6;stroke-width:0;stroke-linecap:round;stroke-linejoin:round;stroke-miterlimit:10;stroke-opacity:1"
     id="polygon21802"
     transform="matrix(0.35277777,0,0,0.35277777,4.9999983,5.0000006)" />
  <polyline
     points="58.13,304.93 62.27,304.90 66.40,304.85 70.54,304.79 74.68,304.70 78.81,304.59 82.95,304.45 87.09,304.26 91.23,304.02 95.36,303.71 99.50,303.32 103.64,302.83 107.77,302.22 111.91,301.46 116.05,300.52 120.18,299.37 124.32,297.97 128.46,296.28 132.60,294.26 136.73,291.85 140.87,289.01 145.01,285.69 149.14,281.82 153.28,277.35 157.42,272.23 161.56,266.42 165.69,259.86 169.83,252.53 173.97,244.40 178.10,235.46 182.24,225.71 186.38,215.17 190.51,203.87 194.65,191.88 198.79,179.28 202.93,166.17 207.06,152.66 211.20,138.91 215.34,125.08 219.47,111.33 223.61,97.87 227.75,84.88 231.89,72.58 236.02,61.15 240.16,50.79 244.30,41.68 248.43,33.98 252.57,27.84 256.71,23.37 260.84,20.66 264.98,19.74 269.12,20.66 273.26,23.37 277.39,27.84 281.53,33.98 285.67,41.68 289.80,50.79 293.94,61.15 298.08,72.58 302.22,84.88 306.35,97.87 310.49,111.33 314.63,125.08 318.76,138.91 322.90,152.66 327.04,166.17 331.18,179.28 335.31,191.88 339.45,203.87 343.59,215.17 347.72,225.71 351.86,235.46 356.00,244.40 360.13,252.53 364.27,259.86 368.41,266.42 372.55,272.23 376.68,277.35 380.82,281.82 384.96,285.69 389.09,289.01 393.23,291.85 397.37,294.26 401.51,296.28 405.64,297.97 409.78,299.37 413.92,300.52 418.05,301.46 422.19,302.22 426.33,302.83 430.46,303.32 434.60,303.71 438.74,304.02 442.88,304.26 447.01,304.45 451.15,304.59 455.29,304.70 459.42,304.79 463.56,304.85 467.70,304.90 471.84,304.93"
     style="fill:none;stroke:#000000;stroke-width:1.07;stroke-linecap:butt;stroke-linejoin:round;stroke-miterlimit:10"
     id="polyline21800"
     transform="matrix(0.35277777,0,0,0.35277777,4.9999983,5.0000006)" />
  <polyline
     points="213.27,131.99 214.30,128.53 215.34,125.08 216.37,121.63 217.41,118.18 218.44,114.75 219.47,111.33 220.51,107.93 221.54,104.55 222.58,101.20 223.61,97.87 224.65,94.57 225.68,91.30 226.71,88.07 227.75,84.88 228.78,81.73 229.82,78.63 230.85,75.58 231.89,72.58 232.92,69.63 233.95,66.74 234.99,63.91 236.02,61.15 237.06,58.45 238.09,55.82 239.13,53.27 240.16,50.79 241.19,48.38 242.23,46.06 243.26,43.83 244.30,41.68 245.33,39.62 246.37,37.64 247.40,35.77 248.43,33.98 249.47,32.30 250.50,30.71 251.54,29.23 252.57,27.84 253.61,26.56 254.64,25.39 255.67,24.33 256.71,23.37 257.74,22.53 258.78,21.79 259.81,21.17 260.84,20.66 261.88,20.26 262.91,19.97 263.95,19.80 264.98,19.74 266.02,19.80 267.05,19.97 268.08,20.26 269.12,20.66 270.15,21.17 271.19,21.79 272.22,22.53 273.26,23.37 274.29,24.33 275.32,25.39 276.36,26.56 277.39,27.84 278.43,29.23 279.46,30.71 280.50,32.30 281.53,33.98 282.56,35.77 283.60,37.64 284.63,39.62 285.67,41.68 286.70,43.83 287.74,46.06 288.77,48.38 289.80,50.79 290.84,53.27 291.87,55.82 292.91,58.45 293.94,61.15 294.98,63.91 296.01,66.74 297.04,69.63 298.08,72.58 299.11,75.58 300.15,78.63 301.18,81.73 302.22,84.88 303.25,88.07 304.28,91.30 305.32,94.57 306.35,97.87 307.39,101.20 308.42,104.55 309.46,107.93 310.49,111.33 311.52,114.75 312.56,118.18 313.59,121.63 314.63,125.08 315.66,128.53 316.70,131.99"
     style="fill:none;stroke:none;stroke-width:1.07;stroke-linecap:round;stroke-linejoin:round;stroke-miterlimit:10"
     id="polyline21804"
     transform="matrix(0.35277777,0,0,0.35277777,4.9999983,5.0000006)" />
  <polyline
     points="161.56,266.42 163.62,263.24 165.69,259.86 167.76,256.30 169.83,252.53 171.90,248.57 173.97,244.40 176.04,240.03 178.10,235.46 180.17,230.69 182.24,225.71 184.31,220.53 186.38,215.17 188.45,209.61 190.51,203.87 192.58,197.96 194.65,191.88 196.72,185.65 198.79,179.28 200.86,172.78 202.93,166.17 204.99,159.45 207.06,152.66 209.13,145.81 211.20,138.91 213.27,131.99 215.34,125.08 217.41,118.18 219.47,111.33 221.54,104.55 223.61,97.87 225.68,91.30 227.75,84.88 229.82,78.63 231.89,72.58 233.95,66.74 236.02,61.15 238.09,55.82 240.16,50.79 242.23,46.06 244.30,41.68 246.37,37.64 248.43,33.98 250.50,30.71 252.57,27.84 254.64,25.39 256.71,23.37 258.78,21.79 260.84,20.66 262.91,19.97 264.98,19.74 267.05,19.97 269.12,20.66 271.19,21.79 273.26,23.37 275.32,25.39 277.39,27.84 279.46,30.71 281.53,33.98 283.60,37.64 285.67,41.68 287.74,46.06 289.80,50.79 291.87,55.82 293.94,61.15 296.01,66.74 298.08,72.58 300.15,78.63 302.22,84.88 304.28,91.30 306.35,97.87 308.42,104.55 310.49,111.33 312.56,118.18 314.63,125.08 316.70,131.99 318.76,138.91 320.83,145.81 322.90,152.66 324.97,159.45 327.04,166.17 329.11,172.78 331.18,179.28 333.24,185.65 335.31,191.88 337.38,197.96 339.45,203.87 341.52,209.61 343.59,215.17 345.65,220.53 347.72,225.71 349.79,230.69 351.86,235.46 353.93,240.03 356.00,244.40 358.07,248.57 360.13,252.53 362.20,256.30 364.27,259.86 366.34,263.24 368.41,266.42"
     style="fill:none;stroke:none;stroke-width:1.07;stroke-linecap:round;stroke-linejoin:round;stroke-miterlimit:10"
     id="polyline21808"
     transform="matrix(0.35277777,0,0,0.35277777,4.9999983,5.0000006)" />
  <polyline
     points="109.84,301.86 112.94,301.24 116.05,300.52 119.15,299.68 122.25,298.70 125.36,297.58 128.46,296.28 131.56,294.80 134.66,293.11 137.77,291.19 140.87,289.01 143.97,286.57 147.08,283.82 150.18,280.76 153.28,277.35 156.38,273.58 159.49,269.42 162.59,264.85 165.69,259.86 168.80,254.44 171.90,248.57 175.00,242.25 178.10,235.46 181.21,228.22 184.31,220.53 187.41,212.41 190.51,203.87 193.62,194.94 196.72,185.65 199.82,176.04 202.93,166.17 206.03,156.07 209.13,145.81 212.23,135.45 215.34,125.08 218.44,114.75 221.54,104.55 224.65,94.57 227.75,84.88 230.85,75.58 233.95,66.74 237.06,58.45 240.16,50.79 243.26,43.83 246.37,37.64 249.47,32.30 252.57,27.84 255.67,24.33 258.78,21.79 261.88,20.26 264.98,19.74 268.08,20.26 271.19,21.79 274.29,24.33 277.39,27.84 280.50,32.30 283.60,37.64 286.70,43.83 289.80,50.79 292.91,58.45 296.01,66.74 299.11,75.58 302.22,84.88 305.32,94.57 308.42,104.55 311.52,114.75 314.63,125.08 317.73,135.45 320.83,145.81 323.94,156.07 327.04,166.17 330.14,176.04 333.24,185.65 336.35,194.94 339.45,203.87 342.55,212.41 345.65,220.53 348.76,228.22 351.86,235.46 354.96,242.25 358.07,248.57 361.17,254.44 364.27,259.86 367.37,264.85 370.48,269.42 373.58,273.58 376.68,277.35 379.79,280.76 382.89,283.82 385.99,286.57 389.09,289.01 392.20,291.19 395.30,293.11 398.40,294.80 401.51,296.28 404.61,297.58 407.71,298.70 410.81,299.68 413.92,300.52 417.02,301.24 420.12,301.86"
     style="fill:none;stroke:none;stroke-width:1.07;stroke-linecap:round;stroke-linejoin:round;stroke-miterlimit:10"
     id="polyline21812"
     transform="matrix(0.35277777,0,0,0.35277777,4.9999983,5.0000006)" />
  <line
     x1="80.236916"
     y1="51.563133"
     x2="116.72472"
     y2="51.563133"
     style="fill:none;stroke:#000000;stroke-width:0.377472;stroke-linecap:butt;stroke-linejoin:round;stroke-miterlimit:10;stroke-dasharray:2.00731, 2.00731"
     id="line21814" />
  <line
     x1="61.994774"
     y1="98.987053"
     x2="134.96686"
     y2="98.987053"
     style="fill:none;stroke:#000000;stroke-width:0.377472;stroke-linecap:butt;stroke-linejoin:round;stroke-miterlimit:10;stroke-dasharray:2.00731, 2.00731"
     id="line21816" />
  <line
     x1="43.749115"
     y1="111.4895"
     x2="153.20898"
     y2="111.4895"
     style="fill:none;stroke:#000000;stroke-width:0.377472;stroke-linecap:butt;stroke-linejoin:round;stroke-miterlimit:10;stroke-dasharray:2.00731, 2.00731"
     id="line21818" />
  <text
     x="98.479057"
     y="49.174828"
     text-anchor="middle"
     style="font-style:normal;font-variant:normal;font-weight:normal;font-stretch:normal;font-size:3.52778px;font-family:sans-serif;-inkscape-font-specification:sans-serif;fill:#000000;fill-opacity:1;stroke:none;stroke-width:0;stroke-miterlimit:10;stroke-dasharray:none"
     lengthAdjust="spacingAndGlyphs"
     id="text21820">68.3%</text>
  <text
     x="98.479057"
     y="96.59523"
     text-anchor="middle"
     style="font-style:normal;font-variant:normal;font-weight:normal;font-stretch:normal;font-size:3.52778px;font-family:sans-serif;-inkscape-font-specification:sans-serif;fill:#000000;fill-opacity:1;stroke:none;stroke-width:0;stroke-miterlimit:10;stroke-dasharray:none"
     lengthAdjust="spacingAndGlyphs"
     id="text21822">95.4%</text>
  <text
     x="98.479057"
     y="109.09767"
     text-anchor="middle"
     style="font-style:normal;font-variant:normal;font-weight:normal;font-stretch:normal;font-size:3.52778px;font-family:sans-serif;-inkscape-font-specification:sans-serif;fill:#000000;fill-opacity:1;stroke:none;stroke-width:0;stroke-miterlimit:10;stroke-dasharray:none"
     lengthAdjust="spacingAndGlyphs"
     id="text21824">99.7%</text>
  <text
     x="16.468803"
     y="113.74022"
     text-anchor="end"
     style="font-style:normal;font-variant:normal;font-weight:normal;font-stretch:normal;font-size:3.52778px;font-family:sans-serif;-inkscape-font-specification:sans-serif;fill:#000000;fill-opacity:1;stroke:none;stroke-width:0;stroke-miterlimit:10;stroke-dasharray:none"
     lengthAdjust="spacingAndGlyphs"
     id="text21828">0.0</text>
  <text
     x="16.468803"
     y="88.513069"
     text-anchor="end"
     style="font-style:normal;font-variant:normal;font-weight:normal;font-stretch:normal;font-size:3.52778px;font-family:sans-serif;-inkscape-font-specification:sans-serif;fill:#000000;fill-opacity:1;stroke:none;stroke-width:0;stroke-miterlimit:10;stroke-dasharray:none"
     lengthAdjust="spacingAndGlyphs"
     id="text21830">0.1</text>
  <text
     x="16.468803"
     y="63.285942"
     text-anchor="end"
     style="font-style:normal;font-variant:normal;font-weight:normal;font-stretch:normal;font-size:3.52778px;font-family:sans-serif;-inkscape-font-specification:sans-serif;fill:#000000;fill-opacity:1;stroke:none;stroke-width:0;stroke-miterlimit:10;stroke-dasharray:none"
     lengthAdjust="spacingAndGlyphs"
     id="text21832">0.2</text>
  <text
     x="16.468803"
     y="38.058807"
     text-anchor="end"
     style="font-style:normal;font-variant:normal;font-weight:normal;font-stretch:normal;font-size:3.52778px;font-family:sans-serif;-inkscape-font-specification:sans-serif;fill:#000000;fill-opacity:1;stroke:none;stroke-width:0;stroke-miterlimit:10;stroke-dasharray:none"
     lengthAdjust="spacingAndGlyphs"
     id="text21834">0.3</text>
  <text
     x="16.468803"
     y="12.828142"
     text-anchor="end"
     style="font-style:normal;font-variant:normal;font-weight:normal;font-stretch:normal;font-size:3.52778px;font-family:sans-serif;-inkscape-font-specification:sans-serif;fill:#000000;fill-opacity:1;stroke:none;stroke-width:0;stroke-miterlimit:10;stroke-dasharray:none"
     lengthAdjust="spacingAndGlyphs"
     id="text21836">0.4</text>
  <text
     x="25.506973"
     y="122.46442"
     text-anchor="middle"
     style="font-style:normal;font-variant:normal;font-weight:normal;font-stretch:normal;font-size:3.52778px;font-family:sans-serif;-inkscape-font-specification:sans-serif;fill:#000000;fill-opacity:1;stroke:none;stroke-width:0;stroke-miterlimit:10;stroke-dasharray:none"
     lengthAdjust="spacingAndGlyphs"
     id="text21838">−4σ</text>
  <text
     x="43.749115"
     y="122.46442"
     text-anchor="middle"
     style="font-style:normal;font-variant:normal;font-weight:normal;font-stretch:normal;font-size:3.52778px;font-family:sans-serif;-inkscape-font-specification:sans-serif;fill:#000000;fill-opacity:1;stroke:none;stroke-width:0;stroke-miterlimit:10;stroke-dasharray:none"
     lengthAdjust="spacingAndGlyphs"
     id="text21840">−3σ</text>
  <text
     x="61.994774"
     y="122.46442"
     text-anchor="middle"
     style="font-style:normal;font-variant:normal;font-weight:normal;font-stretch:normal;font-size:3.52778px;font-family:sans-serif;-inkscape-font-specification:sans-serif;fill:#000000;fill-opacity:1;stroke:none;stroke-width:0;stroke-miterlimit:10;stroke-dasharray:none"
     lengthAdjust="spacingAndGlyphs"
     id="text21842">−2σ</text>
  <text
     x="80.236916"
     y="122.46442"
     text-anchor="middle"
     style="font-style:normal;font-variant:normal;font-weight:normal;font-stretch:normal;font-size:3.52778px;font-family:sans-serif;-inkscape-font-specification:sans-serif;fill:#000000;fill-opacity:1;stroke:none;stroke-width:0;stroke-miterlimit:10;stroke-dasharray:none"
     lengthAdjust="spacingAndGlyphs"
     id="text21844">−1σ</text>
  <text
     x="98.479057"
     y="122.46442"
     text-anchor="middle"
     style="font-style:normal;font-variant:normal;font-weight:normal;font-stretch:normal;font-size:3.52778px;font-family:sans-serif;-inkscape-font-specification:sans-serif;fill:#000000;fill-opacity:1;stroke:none;stroke-width:0;stroke-miterlimit:10;stroke-dasharray:none"
     lengthAdjust="spacingAndGlyphs"
     id="text21846">0</text>
  <text
     x="116.72472"
     y="122.46442"
     text-anchor="middle"
     style="font-style:normal;font-variant:normal;font-weight:normal;font-stretch:normal;font-size:3.52778px;font-family:sans-serif;-inkscape-font-specification:sans-serif;fill:#000000;fill-opacity:1;stroke:none;stroke-width:0;stroke-miterlimit:10;stroke-dasharray:none"
     lengthAdjust="spacingAndGlyphs"
     id="text21848">+1σ</text>
  <text
     x="134.96686"
     y="122.46442"
     text-anchor="middle"
     style="font-style:normal;font-variant:normal;font-weight:normal;font-stretch:normal;font-size:3.52778px;font-family:sans-serif;-inkscape-font-specification:sans-serif;fill:#000000;fill-opacity:1;stroke:none;stroke-width:0;stroke-miterlimit:10;stroke-dasharray:none"
     lengthAdjust="spacingAndGlyphs"
     id="text21850">+2σ</text>
  <text
     x="153.20898"
     y="122.46442"
     text-anchor="middle"
     style="font-style:normal;font-variant:normal;font-weight:normal;font-stretch:normal;font-size:3.52778px;font-family:sans-serif;-inkscape-font-specification:sans-serif;fill:#000000;fill-opacity:1;stroke:none;stroke-width:0;stroke-miterlimit:10;stroke-dasharray:none"
     lengthAdjust="spacingAndGlyphs"
     id="text21852">+3σ</text>
  <text
     x="171.45465"
     y="122.46442"
     text-anchor="middle"
     style="font-style:normal;font-variant:normal;font-weight:normal;font-stretch:normal;font-size:3.52778px;font-family:sans-serif;-inkscape-font-specification:sans-serif;fill:#000000;fill-opacity:1;stroke:none;stroke-width:0;stroke-miterlimit:10;stroke-dasharray:none"
     lengthAdjust="spacingAndGlyphs"
     id="text21854">+4σ</text>
  <text
     x="98.479057"
     y="127.14226"
     text-anchor="middle"
     style="font-style:normal;font-variant:normal;font-weight:normal;font-stretch:normal;font-size:3.52778px;font-family:sans-serif;-inkscape-font-specification:sans-serif;fill:#000000;fill-opacity:1;stroke:none;stroke-width:0;stroke-miterlimit:10;stroke-dasharray:none"
     lengthAdjust="spacingAndGlyphs"
     id="text21856">Standard Deviations from the Mean</text>
  <text
     transform="rotate(-90)"
     text-anchor="middle"
     style="font-style:normal;font-variant:normal;font-weight:normal;font-stretch:normal;font-size:3.52778px;font-family:sans-serif;-inkscape-font-specification:sans-serif;fill:#000000;fill-opacity:1;stroke:none;stroke-width:0;stroke-miterlimit:10;stroke-dasharray:none"
     lengthAdjust="spacingAndGlyphs"
     id="text21858"
     x="-62.287582"
     y="8.7041626">Probability Density</text>
</svg>
